<svg id="图层_1" data-name="图层 1" xmlns="http://www.w3.org/2000/svg" viewBox="0 0 500 500"><defs><style>.cls-1,.cls-2{fill:none;}.cls-1{stroke:#1b1464;stroke-miterlimit:10;stroke-width:10px;}</style></defs><path class="cls-1" d="M224,235,105.78,303.27a2,2,0,0,1-3-1.73V171.93a12,12,0,0,1,6-10.39L214,100.78a20,20,0,0,0,10-17.32V65L92.79,140.76a32,32,0,0,0-16,27.72V336.14a8,8,0,0,0,12,6.93L214,270.78a20,20,0,0,0,10-17.32Z"/><path class="cls-1" d="M276,235V98.46a2,2,0,0,1,3-1.73l112.24,64.81a12,12,0,0,1,6,10.39v121.5a20,20,0,0,0,10,17.32l16,9.23V168.48a32,32,0,0,0-16-27.72L262,56.93a8,8,0,0,0-12,6.93V208.43a20,20,0,0,0,10,17.32Z"/><path class="cls-1" d="M250,280l118.22,68.26a2,2,0,0,1,0,3.46L256,416.54a12,12,0,0,1-12,0L138.78,355.78a20,20,0,0,0-20,0l-16,9.23L234,440.76a32,32,0,0,0,32,0l145.21-83.83a8,8,0,0,0,0-13.86L286,270.78a20,20,0,0,0-20,0Z"/><rect class="cls-2" width="500" height="500"/></svg>